<svg width="24" height="25" viewBox="0 0 24 25" fill="none" xmlns="http://www.w3.org/2000/svg">
<mask id="mask0_3212_1453" style="mask-type:alpha" maskUnits="userSpaceOnUse" x="0" y="0" width="24" height="25">
<rect y="0.702393" width="24" height="24" fill="#D9D9D9"/>
</mask>
<g mask="url(#mask0_3212_1453)">
<path d="M13 8.70239V4.70239C13 4.41906 13.0958 4.18156 13.2875 3.98989C13.4792 3.79823 13.7167 3.70239 14 3.70239H20C20.2833 3.70239 20.5208 3.79823 20.7125 3.98989C20.9042 4.18156 21 4.41906 21 4.70239V8.70239C21 8.98573 20.9042 9.22323 20.7125 9.41489C20.5208 9.60656 20.2833 9.70239 20 9.70239H14C13.7167 9.70239 13.4792 9.60656 13.2875 9.41489C13.0958 9.22323 13 8.98573 13 8.70239ZM3 12.7024V4.70239C3 4.41906 3.09583 4.18156 3.2875 3.98989C3.47917 3.79823 3.71667 3.70239 4 3.70239H10C10.2833 3.70239 10.5208 3.79823 10.7125 3.98989C10.9042 4.18156 11 4.41906 11 4.70239V12.7024C11 12.9857 10.9042 13.2232 10.7125 13.4149C10.5208 13.6066 10.2833 13.7024 10 13.7024H4C3.71667 13.7024 3.47917 13.6066 3.2875 13.4149C3.09583 13.2232 3 12.9857 3 12.7024ZM13 20.7024V12.7024C13 12.4191 13.0958 12.1816 13.2875 11.9899C13.4792 11.7982 13.7167 11.7024 14 11.7024H20C20.2833 11.7024 20.5208 11.7982 20.7125 11.9899C20.9042 12.1816 21 12.4191 21 12.7024V20.7024C21 20.9857 20.9042 21.2232 20.7125 21.4149C20.5208 21.6066 20.2833 21.7024 20 21.7024H14C13.7167 21.7024 13.4792 21.6066 13.2875 21.4149C13.0958 21.2232 13 20.9857 13 20.7024ZM3 20.7024V16.7024C3 16.4191 3.09583 16.1816 3.2875 15.9899C3.47917 15.7982 3.71667 15.7024 4 15.7024H10C10.2833 15.7024 10.5208 15.7982 10.7125 15.9899C10.9042 16.1816 11 16.4191 11 16.7024V20.7024C11 20.9857 10.9042 21.2232 10.7125 21.4149C10.5208 21.6066 10.2833 21.7024 10 21.7024H4C3.71667 21.7024 3.47917 21.6066 3.2875 21.4149C3.09583 21.2232 3 20.9857 3 20.7024ZM5 11.7024H9V5.70239H5V11.7024ZM15 19.7024H19V13.7024H15V19.7024ZM15 7.70239H19V5.70239H15V7.70239ZM5 19.7024H9V17.7024H5V19.7024Z" fill="white"/>
</g>
</svg>
