<svg width="187" height="127" viewBox="0 0 187 127" fill="none" xmlns="http://www.w3.org/2000/svg">
<path d="M186.124 111.605H0.875977V111.691H186.124V111.605Z" fill="#EBEBEB"/>
<path d="M32.583 114.851H20.3121V114.936H32.583V114.851Z" fill="#EBEBEB"/>
<path d="M80.0399 113.927H64.2827V114.012H80.0399V113.927Z" fill="#EBEBEB"/>
<path d="M42.616 116.048H35.5062V116.133H42.616V116.048Z" fill="#EBEBEB"/>
<path d="M167.562 117.445H161.92V117.531H167.562V117.445Z" fill="#EBEBEB"/>
<path d="M158.619 117.445H145.914V117.531H158.619V117.445Z" fill="#EBEBEB"/>
<path d="M123.818 114.99H114.989V115.075H123.818V114.99Z" fill="#EBEBEB"/>
<path d="M88.6835 96.4022H17.1481C16.5871 96.4022 16.049 96.1971 15.6522 95.8321C15.2555 95.4671 15.0326 94.972 15.0326 94.4557V1.92941C15.0375 1.41614 15.2625 0.925416 15.6587 0.564064C16.0549 0.202711 16.5902 -1.96779e-05 17.1481 1.43258e-09H88.6835C89.2446 1.43259e-09 89.7827 0.205072 90.1795 0.570103C90.5762 0.935133 90.7991 1.43022 90.7991 1.94645V94.4557C90.7991 94.972 90.5762 95.4671 90.1795 95.8321C89.7827 96.1971 89.2446 96.4022 88.6835 96.4022ZM17.1481 0.0681772C16.6119 0.0690783 16.098 0.265461 15.7188 0.614314C15.3396 0.963167 15.1262 1.43606 15.1252 1.92941V94.4557C15.1262 94.9491 15.3396 95.422 15.7188 95.7708C16.098 96.1197 16.6119 96.3161 17.1481 96.317H88.6835C89.2198 96.3161 89.7337 96.1197 90.1129 95.7708C90.492 95.422 90.7055 94.9491 90.7065 94.4557V1.92941C90.7055 1.43606 90.492 0.963167 90.1129 0.614314C89.7337 0.265461 89.2198 0.0690783 88.6835 0.0681772H17.1481Z" fill="#EBEBEB"/>
<path d="M168.826 96.4022H97.2828C96.722 96.4013 96.1845 96.1959 95.7879 95.8311C95.3914 95.4663 95.1682 94.9717 95.1672 94.4557V1.92941C95.1731 1.41641 95.3984 0.92621 95.7944 0.565048C96.1904 0.203886 96.7252 0.000868673 97.2828 0H168.826C169.382 0.00177413 169.916 0.205298 170.31 0.566458C170.705 0.927618 170.929 1.41731 170.934 1.92941V94.4557C170.934 94.9708 170.712 95.4649 170.317 95.8297C169.922 96.1945 169.385 96.4004 168.826 96.4022ZM97.2828 0.0681772C96.7466 0.0690783 96.2326 0.265461 95.8534 0.614314C95.4743 0.963167 95.2608 1.43606 95.2599 1.92941V94.4557C95.2608 94.9491 95.4743 95.422 95.8534 95.7708C96.2326 96.1197 96.7466 96.3161 97.2828 96.317H168.826C169.362 96.3161 169.876 96.1197 170.255 95.7708C170.634 95.422 170.848 94.9491 170.849 94.4557V1.92941C170.848 1.43606 170.634 0.963167 170.255 0.614314C169.876 0.265461 169.362 0.0690783 168.826 0.0681772H97.2828Z" fill="#EBEBEB"/>
<path d="M114.804 48.1904L154.769 48.1904V11.3203L114.804 11.3203V48.1904Z" fill="#F0F0F0"/>
<path d="M114.804 11.3242H114.115V48.1943H114.804V11.3242Z" fill="#E0E0E0"/>
<path d="M118.334 45.8623L151.242 45.8623V13.6487L118.334 13.6487V45.8623Z" fill="#FAFAFA"/>
<path d="M131.291 38.861H141.713C143.973 38.861 145.484 37.1771 145.088 35.1113L143.061 24.4314C142.836 23.398 142.238 22.4651 141.363 21.7843C140.489 21.1035 139.39 20.7149 138.245 20.6816H127.849C125.589 20.6816 124.077 22.3656 124.474 24.4314L126.5 35.1113C126.724 36.1411 127.318 37.0714 128.187 37.7518C129.057 38.4323 130.15 38.8231 131.291 38.861Z" fill="#F0F0F0"/>
<path d="M39.7669 59.3887H30.875V109.857H39.7669V59.3887Z" fill="#F0F0F0"/>
<path d="M78.7839 109.86H31.7827V111.602H78.7839V109.86Z" fill="#F0F0F0"/>
<path d="M39.767 109.86H79.5657V59.3924L39.767 59.3924L39.767 109.86Z" fill="#F5F5F5"/>
<path d="M41.3676 94.6807H77.9652V85.6677H41.3676V94.6807Z" fill="#F0F0F0"/>
<path d="M41.3676 106.476H77.9652V97.4626H41.3676V106.476Z" fill="#F0F0F0"/>
<path d="M73.6341 85.1152H45.6987C45.4572 85.1152 45.2615 85.2953 45.2615 85.5175V85.9504C45.2615 86.1726 45.4572 86.3526 45.6987 86.3526H73.6341C73.8755 86.3526 74.0713 86.1726 74.0713 85.9504V85.5175C74.0713 85.2953 73.8755 85.1152 73.6341 85.1152Z" fill="#F5F5F5"/>
<path d="M73.6341 96.9131H45.6987C45.4572 96.9131 45.2615 97.0932 45.2615 97.3153V97.7483C45.2615 97.9704 45.4572 98.1505 45.6987 98.1505H73.6341C73.8755 98.1505 74.0713 97.9704 74.0713 97.7483V97.3153C74.0713 97.0932 73.8755 96.9131 73.6341 96.9131Z" fill="#F5F5F5"/>
<path d="M41.3676 71.1836H77.9652V62.1706H41.3676V71.1836Z" fill="#F0F0F0"/>
<path d="M41.3676 82.8896H77.9652V73.8767H41.3676V82.8896Z" fill="#F0F0F0"/>
<path d="M73.6341 61.6221H45.6987C45.4572 61.6221 45.2615 61.8022 45.2615 62.0243V62.4572C45.2615 62.6794 45.4572 62.8595 45.6987 62.8595H73.6341C73.8755 62.8595 74.0713 62.6794 74.0713 62.4572V62.0243C74.0713 61.8022 73.8755 61.6221 73.6341 61.6221Z" fill="#F5F5F5"/>
<path d="M73.6341 73.3213H45.6987C45.4572 73.3213 45.2615 73.5014 45.2615 73.7235V74.1565C45.2615 74.3786 45.4572 74.5587 45.6987 74.5587H73.6341C73.8755 74.5587 74.0713 74.3786 74.0713 74.1565V73.7235C74.0713 73.5014 73.8755 73.3213 73.6341 73.3213Z" fill="#F5F5F5"/>
<path d="M78.1245 8.54297H28.215V48.856H78.1245V8.54297Z" fill="#E6E6E6"/>
<path d="M83.4744 6.97461H24.9841C24.9191 6.97461 24.8547 6.98645 24.7947 7.00944C24.7346 7.03244 24.6802 7.06614 24.6344 7.1086C24.5885 7.15106 24.5523 7.20145 24.5278 7.25685C24.5032 7.31225 24.4909 7.37157 24.4913 7.4314C24.4913 7.55164 24.5433 7.66696 24.6357 7.75198C24.7281 7.83701 24.8534 7.88477 24.9841 7.88477H83.4744C83.6054 7.88477 83.7311 7.83712 83.8241 7.75219C83.9171 7.66726 83.9698 7.55195 83.9708 7.4314C83.9708 7.31025 83.9185 7.19406 83.8254 7.1084C83.7323 7.02274 83.606 6.97461 83.4744 6.97461Z" fill="#E6E6E6"/>
<path d="M80.2437 8.54297H29.2041V48.856H80.2437V8.54297Z" fill="#F0F0F0"/>
<path d="M78.1245 48.8555H28.215V50.1474H79.5843L78.1245 48.8555Z" fill="#E6E6E6"/>
<path d="M83.7708 48.8555H32.735L34.191 50.1474H85.2306L83.7708 48.8555Z" fill="#F0F0F0"/>
<path d="M77.2798 46.1284V11.2695L32.1719 11.2695V46.1284H77.2798Z" fill="#FAFAFA"/>
<path d="M42.4122 46.1284L59.8107 11.2695H68.0283L50.6261 46.1284H42.4122Z" fill="white"/>
<path d="M52.3898 46.1284L69.792 11.2695H72.9931L55.5946 46.1284H52.3898Z" fill="white"/>
<path d="M77.2798 46.1284V11.2695H76.9019V46.1284H77.2798Z" fill="#E6E6E6"/>
<g opacity="0.4">
<path d="M32.2051 6.16016H27.1034V39.4271H32.2051V6.16016Z" fill="#F0F0F0"/>
<path d="M34.1947 6.16016H30.2192V39.4271H34.1947V6.16016Z" fill="#E6E6E6"/>
<path d="M37.3068 6.16016H32.2051V39.4271H37.3068V6.16016Z" fill="#F0F0F0"/>
<path d="M39.2965 6.16016H35.321V39.4271H39.2965V6.16016Z" fill="#E6E6E6"/>
<path d="M42.4085 6.16016H37.3068V39.4271H42.4085V6.16016Z" fill="#F0F0F0"/>
</g>
<g opacity="0.4">
<path d="M75.3828 6.16016H72.441V39.4271H75.3828V6.16016Z" fill="#F0F0F0"/>
<path d="M76.5239 6.16016H74.2343V39.4271H76.5239V6.16016Z" fill="#E6E6E6"/>
<path d="M78.3208 6.16016H75.379V39.4271H78.3208V6.16016Z" fill="#F0F0F0"/>
<path d="M79.4656 6.16016H77.1759V39.4271H79.4656V6.16016Z" fill="#E6E6E6"/>
<path d="M81.2625 6.16016H78.3208V39.4271H81.2625V6.16016Z" fill="#F0F0F0"/>
</g>
<path d="M133.087 73.0207C133.044 73.5138 133.16 74.0077 133.422 74.44C133.683 74.8723 134.078 75.2237 134.556 75.4496C135.035 75.6754 135.575 75.7658 136.109 75.7092C136.643 75.6525 137.147 75.4515 137.557 75.1314C137.967 74.8113 138.265 74.3866 138.413 73.9109C138.56 73.4352 138.552 72.9299 138.387 72.4588C138.223 71.9877 137.91 71.5721 137.489 71.2643C137.068 70.9566 136.558 70.7706 136.022 70.7299C135.303 70.6762 134.59 70.8872 134.04 71.3167C133.489 71.7462 133.147 72.3591 133.087 73.0207Z" fill="#E0E0E0"/>
<path d="M140.649 77.006C142.137 76.8046 143.166 75.5315 142.947 74.1625C142.728 72.7935 141.344 71.8469 139.856 72.0484C138.368 72.2498 137.339 73.5229 137.558 74.8919C137.777 76.2609 139.161 77.2074 140.649 77.006Z" fill="#E0E0E0"/>
<path d="M142.302 74.8415C142.258 75.3346 142.375 75.8285 142.636 76.2609C142.897 76.6932 143.292 77.0445 143.771 77.2704C144.249 77.4963 144.79 77.5866 145.324 77.53C145.858 77.4734 146.362 77.2723 146.772 76.9522C147.182 76.6321 147.48 76.2074 147.627 75.7317C147.775 75.256 147.766 74.7507 147.602 74.2796C147.437 73.8086 147.125 73.3929 146.704 73.0852C146.283 72.7775 145.772 72.5915 145.236 72.5508C144.88 72.5232 144.521 72.5607 144.181 72.661C143.84 72.7614 143.525 72.9226 143.252 73.1354C142.979 73.3482 142.755 73.6085 142.592 73.9013C142.429 74.1941 142.33 74.5136 142.302 74.8415Z" fill="#E0E0E0"/>
<path d="M128.03 74.3332C127.987 74.8263 128.103 75.3202 128.364 75.7525C128.626 76.1848 129.021 76.5362 129.499 76.7621C129.977 76.9879 130.518 77.0783 131.052 77.0217C131.586 76.965 132.09 76.764 132.5 76.4439C132.91 76.1238 133.208 75.6991 133.356 75.2234C133.503 74.7477 133.494 74.2424 133.33 73.7713C133.166 73.3002 132.853 72.8846 132.432 72.5768C132.011 72.2691 131.501 72.0831 130.965 72.0424C130.245 71.9887 129.533 72.1997 128.982 72.6292C128.432 73.0587 128.09 73.6716 128.03 74.3332Z" fill="#E0E0E0"/>
<path d="M149.341 77.0041C150.829 76.8026 151.857 75.5295 151.638 74.1605C151.42 72.7915 150.036 71.845 148.548 72.0464C147.06 72.2478 146.031 73.5209 146.25 74.89C146.469 76.259 147.853 77.2055 149.341 77.0041Z" fill="#E0E0E0"/>
<path d="M128.843 74.3243C129.986 73.4249 130.12 71.8432 129.143 70.7916C128.165 69.7399 126.446 69.6165 125.303 70.516C124.16 71.4154 124.026 72.9971 125.004 74.0487C125.981 75.1004 127.7 75.2238 128.843 74.3243Z" fill="#E0E0E0"/>
<path d="M120.517 73.7638C120.473 74.2569 120.589 74.7509 120.851 75.1832C121.112 75.6155 121.507 75.9668 121.985 76.1927C122.464 76.4186 123.004 76.509 123.538 76.4523C124.073 76.3957 124.577 76.1946 124.987 75.8745C125.397 75.5545 125.694 75.1297 125.842 74.654C125.99 74.1783 125.981 73.673 125.816 73.2019C125.652 72.7309 125.34 72.3152 124.919 72.0075C124.498 71.6998 123.987 71.5138 123.451 71.4731C122.732 71.4193 122.019 71.6304 121.469 72.0599C120.919 72.4894 120.576 73.1022 120.517 73.7638Z" fill="#E0E0E0"/>
<path d="M117.408 74.4395C117.408 74.4395 117.875 84.6899 135.777 84.6899C153.68 84.6899 154.146 74.4395 154.146 74.4395H117.408Z" fill="#F0F0F0"/>
<path d="M164.361 84.6895H160.956V111.602H164.361V84.6895Z" fill="#E6E6E6"/>
<path d="M165.269 84.6895H163.265V111.602H165.269V84.6895Z" fill="#F0F0F0"/>
<path d="M149.875 84.6895H146.47V111.602H149.875V84.6895Z" fill="#E6E6E6"/>
<path d="M150.512 84.6895H148.508V111.602H150.512V84.6895Z" fill="#F0F0F0"/>
<path d="M117.556 87.9551H165.891V84.6928H117.556V87.9551Z" fill="#F0F0F0"/>
<path d="M102.785 84.6895H99.3799V111.602H102.785V84.6895Z" fill="#E6E6E6"/>
<path d="M103.422 84.6895H101.418V111.602H103.422V84.6895Z" fill="#F0F0F0"/>
<path d="M98.7721 87.9551H116.1V84.6928H98.7721V87.9551Z" fill="#E6E6E6"/>
<path d="M117.267 84.6895H113.863V111.602H117.267V84.6895Z" fill="#E6E6E6"/>
<path d="M118.179 84.6895H116.174V111.602H118.179V84.6895Z" fill="#F0F0F0"/>
<path d="M93.4999 127C133.174 127 165.335 125.272 165.335 123.141C165.335 121.01 133.174 119.282 93.4999 119.282C53.8263 119.282 21.6644 121.01 21.6644 123.141C21.6644 125.272 53.8263 127 93.4999 127Z" fill="#F5F5F5"/>
<path d="M132.58 119.756C132.58 120.437 132.318 121.097 131.84 121.617C131.361 122.137 130.698 122.484 129.968 122.596C120.979 123.991 111.799 123.991 102.811 122.596C102.083 122.481 101.424 122.132 100.949 121.613C100.474 121.093 100.215 120.435 100.217 119.756V92.1445H132.595L132.58 119.756Z" fill="#90CAF9"/>
<path opacity="0.3" d="M100.199 92.6426V96.5184C102.147 97.1832 108.546 97.6706 116.389 97.6706C124.233 97.6706 130.642 97.1832 132.58 96.5184V92.6426H100.199Z" fill="black"/>
<path d="M133.188 95.5982C133.188 96.4743 125.837 97.1833 116.389 97.1833C106.942 97.1833 99.591 96.4743 99.591 95.5982L99.2834 92.1553H133.514L133.188 95.5982Z" fill="#90CAF9"/>
<path d="M116.389 93.7367C125.837 93.7367 133.495 93.0285 133.495 92.1549C133.495 91.2814 125.837 90.5732 116.389 90.5732C106.942 90.5732 99.2834 91.2814 99.2834 92.1549C99.2834 93.0285 106.942 93.7367 116.389 93.7367Z" fill="#90CAF9"/>
<path opacity="0.3" d="M116.389 93.7367C125.837 93.7367 133.495 93.0285 133.495 92.1549C133.495 91.2814 125.837 90.5732 116.389 90.5732C106.942 90.5732 99.2834 91.2814 99.2834 92.1549C99.2834 93.0285 106.942 93.7367 116.389 93.7367Z" fill="black"/>
<path opacity="0.2" d="M104.541 117.814C104.208 117.813 103.889 117.691 103.654 117.474C103.419 117.258 103.286 116.964 103.285 116.658V100.827C103.286 100.521 103.419 100.228 103.654 100.011C103.889 99.7948 104.208 99.6728 104.541 99.6719C104.873 99.6737 105.192 99.796 105.427 100.012C105.662 100.229 105.795 100.522 105.797 100.827V116.658C105.795 116.964 105.662 117.257 105.427 117.473C105.192 117.69 104.873 117.812 104.541 117.814Z" fill="black"/>
<path opacity="0.2" d="M128.241 117.814C127.909 117.813 127.59 117.691 127.354 117.474C127.119 117.258 126.986 116.964 126.985 116.658V100.827C126.986 100.521 127.119 100.228 127.354 100.011C127.59 99.7948 127.909 99.6728 128.241 99.6719C128.574 99.6737 128.892 99.796 129.127 100.012C129.363 100.229 129.495 100.522 129.497 100.827V116.658C129.495 116.964 129.363 117.257 129.127 117.473C128.892 117.69 128.574 117.812 128.241 117.814Z" fill="black"/>
<path opacity="0.2" d="M120.339 117.814C120.006 117.812 119.688 117.69 119.453 117.473C119.218 117.257 119.085 116.964 119.083 116.658V100.827C119.085 100.522 119.218 100.229 119.453 100.012C119.688 99.796 120.006 99.6737 120.339 99.6719C120.672 99.6728 120.99 99.7948 121.226 100.011C121.461 100.228 121.594 100.521 121.595 100.827V116.658C121.594 116.964 121.461 117.258 121.226 117.474C120.99 117.691 120.672 117.813 120.339 117.814Z" fill="black"/>
<path opacity="0.2" d="M112.44 117.814C112.107 117.812 111.789 117.69 111.554 117.473C111.319 117.257 111.186 116.964 111.184 116.658V100.827C111.186 100.522 111.319 100.229 111.554 100.012C111.789 99.796 112.107 99.6737 112.44 99.6719C112.773 99.6728 113.092 99.7948 113.327 100.011C113.562 100.228 113.695 100.521 113.696 100.827V116.658C113.695 116.964 113.562 117.258 113.327 117.474C113.092 117.691 112.773 117.813 112.44 117.814Z" fill="black"/>
<path d="M72.3373 28.6891C72.3373 29.002 72.2364 29.3078 72.0475 29.5679C71.8586 29.828 71.5901 30.0307 71.276 30.1504C70.9619 30.2701 70.6162 30.3015 70.2828 30.2404C69.9493 30.1794 69.643 30.0288 69.4026 29.8076C69.1621 29.5864 68.9984 29.3045 68.9321 28.9977C68.8657 28.6909 68.8998 28.3729 69.0299 28.0838C69.16 27.7948 69.3804 27.5478 69.6631 27.374C69.9458 27.2002 70.2781 27.1074 70.6182 27.1074C71.0741 27.1074 71.5113 27.2741 71.8337 27.5707C72.1561 27.8673 72.3373 28.2696 72.3373 28.6891Z" fill="#263238"/>
<path d="M69.2363 28.9174C69.2195 28.9178 69.203 28.9139 69.1886 28.906C69.1741 28.8982 69.1624 28.8868 69.1548 28.8731C69.0411 28.681 68.9698 28.4703 68.9447 28.2528C68.9196 28.0354 68.9413 27.8156 69.0086 27.6059C69.0758 27.3961 69.1873 27.2007 69.3367 27.0306C69.486 26.8606 69.6703 26.7192 69.8791 26.6147C70.0878 26.5102 70.3169 26.4445 70.5532 26.4214C70.7895 26.3983 71.0284 26.4183 71.2564 26.4802C71.4843 26.5421 71.6967 26.6447 71.8816 26.7821C72.0664 26.9195 72.22 27.0891 72.3336 27.2811C72.3445 27.3012 72.3467 27.3243 72.3399 27.3458C72.333 27.3673 72.3175 27.3856 72.2966 27.397C72.2859 27.4024 72.2741 27.4058 72.262 27.407C72.2499 27.4082 72.2376 27.4072 72.2259 27.4041C72.2142 27.4009 72.2033 27.3956 72.1938 27.3886C72.1843 27.3815 72.1764 27.3728 72.1706 27.3629C71.9647 27.0149 71.617 26.7563 71.204 26.6441C70.7909 26.5319 70.3463 26.5753 69.968 26.7647C69.5897 26.9541 69.3086 27.274 69.1867 27.6541C69.0648 28.0341 69.1119 28.4432 69.3178 28.7912C69.3236 28.8011 69.3273 28.8119 69.3287 28.8231C69.33 28.8342 69.3289 28.8455 69.3254 28.8563C69.322 28.867 69.3163 28.8771 69.3086 28.8858C69.3009 28.8945 69.2914 28.9018 69.2807 28.9071C69.267 28.9137 69.2517 28.9172 69.2363 28.9174Z" fill="#263238"/>
<path d="M67.5652 35.9157C67.2303 35.9145 66.9024 35.8278 66.6178 35.6654C66.3332 35.503 66.103 35.2713 65.953 34.9958C65.8029 34.7203 65.7387 34.412 65.7676 34.105C65.7965 33.798 65.9173 33.5044 66.1166 33.2568C66.2587 33.0817 66.4368 32.9341 66.6409 32.8224C66.8449 32.7107 67.0709 32.6371 67.3059 32.6057C67.3179 32.6038 67.3301 32.6041 67.3419 32.6067C67.3538 32.6093 67.3649 32.6141 67.3746 32.6209C67.3843 32.6276 67.3924 32.636 67.3985 32.6457C67.4045 32.6555 67.4083 32.6662 67.4096 32.6773C67.4128 32.6994 67.4065 32.7218 67.3919 32.7396C67.3774 32.7575 67.3558 32.7694 67.3318 32.7728C66.9059 32.8302 66.5221 33.0409 66.265 33.3586C66.008 33.6764 65.8986 34.075 65.961 34.467C66.0234 34.8589 66.2524 35.2119 66.5978 35.4485C66.9431 35.685 67.3764 35.7856 67.8024 35.7282C67.8269 35.7246 67.852 35.7301 67.8722 35.7435C67.8923 35.757 67.9059 35.7772 67.9098 35.7998C67.9137 35.8224 67.9077 35.8455 67.8931 35.8641C67.8786 35.8826 67.8566 35.8951 67.832 35.8987C67.7435 35.9094 67.6545 35.9151 67.5652 35.9157Z" fill="#263238"/>
<path d="M76.9055 38.4926C76.5579 38.4921 76.2181 38.3986 75.9274 38.2233C75.9067 38.2107 75.8921 38.1913 75.8866 38.1691C75.8811 38.1469 75.8851 38.1236 75.8977 38.104C75.912 38.0855 75.9333 38.0728 75.9574 38.0684C75.9815 38.0639 76.0066 38.0681 76.0274 38.0801C76.3885 38.2958 76.8279 38.3706 77.249 38.2881C77.6701 38.2056 78.0383 37.9726 78.2726 37.6404C78.507 37.3081 78.5883 36.9039 78.4986 36.5164C78.409 36.129 78.1558 35.7903 77.7947 35.5746C77.774 35.5621 77.7594 35.5427 77.7539 35.5204C77.7484 35.4982 77.7524 35.4749 77.765 35.4553C77.7793 35.4369 77.8006 35.4241 77.8247 35.4197C77.8488 35.4153 77.8739 35.4195 77.8947 35.4315C78.2963 35.6721 78.578 36.0493 78.678 36.4806C78.778 36.9118 78.6882 37.362 78.4282 37.7324C78.2999 37.9168 78.1329 38.0756 77.9369 38.1997C77.741 38.3238 77.52 38.4107 77.2871 38.4551C77.1616 38.4794 77.0337 38.4919 76.9055 38.4926Z" fill="#263238"/>
<path d="M69.6548 33.6218C70.9971 33.6218 72.0853 32.6206 72.0853 31.3856C72.0853 30.1506 70.9971 29.1494 69.6548 29.1494C68.3125 29.1494 67.2244 30.1506 67.2244 31.3856C67.2244 32.6206 68.3125 33.6218 69.6548 33.6218Z" fill="#263238"/>
<path d="M71.9361 36.4926C73.1949 35.3344 73.1949 33.4566 71.9361 32.2984C70.6773 31.1403 68.6364 31.1403 67.3776 32.2984C66.1188 33.4566 66.1188 35.3344 67.3776 36.4926C68.6364 37.6507 70.6773 37.6508 71.9361 36.4926Z" fill="#263238"/>
<path d="M69.9957 41.4453C71.9641 41.4453 73.5599 39.9771 73.5599 38.166C73.5599 36.3549 71.9641 34.8867 69.9957 34.8867C68.0273 34.8867 66.4315 36.3549 66.4315 38.166C66.4315 39.9771 68.0273 41.4453 69.9957 41.4453Z" fill="#263238"/>
<path d="M77.0303 39.1411C77.4824 37.3785 76.2959 35.6123 74.3801 35.1962C72.4643 34.7802 70.5447 35.8719 70.0925 37.6346C69.6404 39.3972 70.8269 41.1634 72.7427 41.5795C74.6585 41.9955 76.5781 40.9038 77.0303 39.1411Z" fill="#263238"/>
<path d="M85.3825 45.1541C85.3825 45.42 85.3825 45.7574 85.4084 46.0642C85.4344 46.371 85.4344 46.6983 85.4566 47.0153C85.5048 47.6494 85.5529 48.2902 85.627 48.9277C85.7604 50.2071 85.9469 51.4809 86.1865 52.749C86.2495 53.0626 86.305 53.383 86.3754 53.6966L86.5385 54.4705C86.5792 54.5932 86.5385 54.5693 86.4866 54.5659C86.4347 54.5625 86.4866 54.6273 86.7052 54.6273C87.2647 54.5756 87.8095 54.4313 88.3131 54.2012C88.6095 54.0784 88.9133 53.9455 89.2171 53.8023C89.5209 53.6592 89.8285 53.4955 90.1063 53.3524L91.1882 54.5011C90.9301 54.7731 90.6555 55.0315 90.3657 55.2749C90.0804 55.5249 89.7784 55.7583 89.4617 55.9738C89.1297 56.2036 88.7792 56.4099 88.4132 56.5908C87.9967 56.7999 87.5502 56.9537 87.0868 57.0475C86.801 57.1048 86.5083 57.1278 86.2161 57.1157C85.8595 57.0967 85.51 57.0157 85.1861 56.8771C84.8416 56.7283 84.5349 56.5146 84.2858 56.2499C84.0719 56.0197 83.897 55.7611 83.7671 55.4829C83.6665 55.27 83.5847 55.05 83.5226 54.825L83.3781 54.3273C83.2744 53.9864 83.1892 53.6626 83.1002 53.3285C82.7536 51.9884 82.4865 50.6319 82.3 49.2651C82.2074 48.5834 82.1333 47.9016 82.0888 47.2028C82.0666 46.8619 82.048 46.521 82.0369 46.1597C82.0258 45.7984 82.0369 45.4779 82.0369 45.0723L85.3825 45.1541Z" fill="#FFB573"/>
<path d="M83.5855 41.479C86.7458 43.705 86.6198 47.9013 86.6198 47.9013L80.9661 49.1455C80.9661 49.1455 79.2322 44.9253 79.9361 43.3811C80.6697 41.7722 81.8071 40.2245 83.5855 41.479Z" fill="#90CAF9"/>
<path opacity="0.7" d="M83.5855 41.479C86.7458 43.705 86.6198 47.9013 86.6198 47.9013L80.9661 49.1455C80.9661 49.1455 79.2322 44.9253 79.9361 43.3811C80.6697 41.7722 81.8071 40.2245 83.5855 41.479Z" fill="white"/>
<path d="M89.8951 53.7442L90.8288 52.2988L93.1703 54.6032C93.1703 54.6032 91.4919 55.5918 89.7506 54.8861L89.8951 53.7442Z" fill="#FFB573"/>
<path d="M91.981 51.6064L94.9857 53.2359L93.1703 54.6028L90.8287 52.2984L91.981 51.6064Z" fill="#FFB573"/>
<path d="M65.8944 120.625L69.1251 120.912L71.1332 113.947L67.8988 113.661L65.8944 120.625Z" fill="#FFB573"/>
<path d="M49.3331 114.773L52.2341 116.171L55.6834 109.878L52.7825 108.48L49.3331 114.773Z" fill="#FFB573"/>
<path d="M53.0084 114.947L50.415 112.523C50.3719 112.48 50.3132 112.454 50.2502 112.449C50.1873 112.444 50.1245 112.461 50.0741 112.496L47.6918 114.108C47.6341 114.151 47.5867 114.204 47.5528 114.265C47.5189 114.326 47.4992 114.392 47.495 114.46C47.4908 114.528 47.5022 114.597 47.5284 114.66C47.5547 114.724 47.5952 114.782 47.6474 114.831C48.5662 115.663 49.0552 116.02 50.1964 117.087C50.9003 117.742 52.3453 119.286 53.316 120.193C54.2867 121.1 55.3092 120.264 54.9943 119.808C53.579 117.762 53.3419 116.477 53.253 115.438C53.2369 115.252 53.1503 115.079 53.0084 114.947Z" fill="#263238"/>
<path d="M69.6289 120.009H65.7128C65.6427 120.01 65.5748 120.031 65.5193 120.071C65.4638 120.11 65.4238 120.165 65.4052 120.227L64.5679 123.06C64.547 123.127 64.5435 123.198 64.5579 123.267C64.5722 123.336 64.6039 123.4 64.6504 123.456C64.697 123.511 64.757 123.556 64.8257 123.586C64.8944 123.616 64.9698 123.631 65.0459 123.629C66.4204 123.629 67.0725 123.629 68.7879 123.629H74.0378C75.4642 123.629 75.7643 122.303 75.1715 122.181C72.5262 121.642 70.9997 120.899 70.1846 120.19C70.0302 120.068 69.8321 120.004 69.6289 120.009Z" fill="#263238"/>
<path opacity="0.2" d="M71.1294 113.951L70.0957 117.541H66.7798L67.895 113.665L71.1294 113.951Z" fill="black"/>
<path opacity="0.2" d="M52.7787 108.48L55.6834 109.882L53.9051 113.123L51.0004 111.722L52.7787 108.48Z" fill="black"/>
<path d="M82.6297 41.0495C82.6297 41.0495 84.0598 41.6256 79.2656 59.0789L65.9499 58.0187C66.6427 53.052 66.9354 49.9772 65.309 39.5359C67.2072 39.3314 69.1189 39.2528 71.0294 39.3007C73.0548 39.3289 75.0753 39.4895 77.0759 39.7814C78.9493 40.1175 80.8029 40.5407 82.6297 41.0495Z" fill="#90CAF9"/>
<path opacity="0.7" d="M82.6297 41.0495C82.6297 41.0495 84.0598 41.6256 79.2656 59.0789L65.9499 58.0187C66.6427 53.052 66.9354 49.9772 65.309 39.5359C67.2072 39.3314 69.1189 39.2528 71.0294 39.3007C73.0548 39.3289 75.0753 39.4895 77.0759 39.7814C78.9493 40.1175 80.8029 40.5407 82.6297 41.0495Z" fill="white"/>
<path d="M71.0294 39.2021C71.0294 39.2021 70.2884 39.2021 69.3807 39.2021C68.8435 39.9623 71.111 42.1815 73.9934 44.3631C74.6899 42.3758 75.7866 42.3826 75.7866 42.3826L71.0294 39.2021Z" fill="white"/>
<path d="M77.0722 39.7373C77.0722 39.7373 77.4094 39.7816 78.217 39.9521C78.7505 40.7122 79.0507 42.6144 77.476 44.2711C76.8573 42.2258 75.7903 42.4098 75.7903 42.4098L77.0722 39.7373Z" fill="white"/>
<path d="M72.215 33.083C72.4299 34.9033 72.5003 38.1963 71.0294 39.3007C71.0294 39.3007 72.6003 40.7802 75.7866 42.4096C78.0985 40.937 77.0759 39.7814 77.0759 39.7814C74.9493 39.1337 75.1456 37.6577 75.6532 36.2941L72.215 33.083Z" fill="#FFB573"/>
<path opacity="0.2" d="M73.6191 34.3955L75.6532 36.2942C75.5283 36.6098 75.4341 36.9349 75.3716 37.2658C74.5565 37.0919 73.3709 36.3079 73.3561 35.5034C73.3703 35.1225 73.4594 34.7471 73.6191 34.3955Z" fill="black"/>
<path d="M79.8547 27.1445C81.2181 28.2558 81.6182 30.9624 80.3215 32.7998C79.9321 30.9372 79.7755 29.0398 79.8547 27.1445Z" fill="#263238"/>
<path d="M71.8 29.2619C71.5629 32.2583 71.3961 33.523 72.804 35.2512C74.9233 37.8522 78.9765 37.4602 80.1806 34.5899C81.2662 32.0026 81.4699 27.537 78.48 25.9621C77.823 25.6093 77.0786 25.4174 76.318 25.4049C75.5573 25.3925 74.8059 25.5598 74.1357 25.8909C73.4654 26.222 72.8987 26.7058 72.4898 27.296C72.0808 27.8862 71.8433 28.5631 71.8 29.2619Z" fill="#FFB573"/>
<path d="M71.3666 31.6753C73.7748 31.5901 75.1086 28.6925 74.5047 27.4688C77.2352 28.7778 81.37 29.8072 80.9105 28.1233C80.2918 25.8496 77.3019 24.1826 73.6229 25.3962C71.4925 26.2484 69.6697 28.1233 71.3666 31.6753Z" fill="#263238"/>
<path d="M70.633 31.672C70.7359 32.2449 71.0791 32.7578 71.5889 33.1003C72.2706 33.5468 72.893 33.0491 72.9412 32.323C72.9856 31.6651 72.6855 30.6425 71.8853 30.4857C71.71 30.4536 71.5289 30.4625 71.3583 30.5114C71.1877 30.5603 71.0331 30.6476 70.9086 30.7656C70.7841 30.8835 70.6937 31.0282 70.6456 31.1865C70.5974 31.3448 70.5931 31.5117 70.633 31.672Z" fill="#FFB573"/>
<path d="M79.2656 59.079C79.2656 59.079 82.2777 77.1629 80.5993 88.7803C79.3285 97.5581 71.1294 116.498 71.1294 116.498L65.8054 116.365C65.8054 116.365 71.3036 98.008 72.441 90.7983C74.3861 78.4515 69.5141 58.3154 69.5141 58.3154L79.2656 59.079Z" fill="#263238"/>
<path opacity="0.2" d="M74.0712 62.7842L71.2295 66.9055C72.0852 71.792 72.6283 76.7206 72.856 81.6658C76.8499 75.0867 74.9752 66.2646 74.0712 62.7842Z" fill="black"/>
<path d="M71.9594 116.771L65.2682 116.604L65.6757 114.623L72.5892 114.661L71.9594 116.771Z" fill="#90CAF9"/>
<path d="M76.3534 58.8844C76.3534 58.8844 74.1304 78.908 69.0509 89.8027C64.9421 98.5975 55.1462 112.666 55.1462 112.666L51.2338 110.559C51.2338 110.559 57.5322 94.9159 60.6407 89.0527C68.2247 74.6776 61.1705 63.1455 65.9499 58.0322L76.3534 58.8844Z" fill="#263238"/>
<path d="M55.5722 112.973L50.5817 110.454L51.3931 108.49L56.7097 111.251L55.5722 112.973Z" fill="#90CAF9"/>
<path d="M65.8165 57.2856L65.1126 58.3356C65.0607 58.414 65.1607 58.5128 65.3163 58.523L79.2803 59.6343C79.3989 59.6343 79.5063 59.5968 79.5175 59.5287L79.7435 58.4412C79.7435 58.3662 79.6582 58.2947 79.5286 58.2844L66.0425 57.2106C66.001 57.2048 65.9586 57.2087 65.9192 57.2218C65.8797 57.2349 65.8444 57.2568 65.8165 57.2856Z" fill="#90CAF9"/>
<path d="M67.4985 58.8161L67.128 58.7889C67.0576 58.7889 67.0057 58.7445 67.0132 58.7036L67.317 57.2924C67.317 57.2481 67.3948 57.2208 67.4652 57.2276L67.8357 57.2549C67.9098 57.2549 67.9616 57.2992 67.9505 57.3401L67.6504 58.7514C67.6356 58.7923 67.5652 58.8229 67.4985 58.8161Z" fill="#263238"/>
<path d="M78.2541 59.6725L77.8836 59.6452C77.8095 59.6452 77.7576 59.6009 77.7687 59.56L78.0725 58.1487C78.0725 58.1078 78.1466 58.0771 78.217 58.084L78.5875 58.1112C78.6579 58.1112 78.7098 58.1555 78.7024 58.1965L78.3986 59.6077C78.3912 59.6554 78.3096 59.6793 78.2541 59.6725Z" fill="#263238"/>
<path d="M72.8745 59.2462L72.504 59.2155C72.4336 59.2155 72.3817 59.1712 72.3891 59.1303L72.6929 57.719C72.6929 57.6781 72.767 57.6475 72.8411 57.6543L73.2116 57.6849C73.282 57.6849 73.3339 57.7293 73.3265 57.7702L73.0227 59.1814C73.0153 59.2223 72.9486 59.2496 72.8745 59.2462Z" fill="#263238"/>
<path d="M76.9018 30.751C76.8647 30.9931 76.9759 31.2078 77.1463 31.2283C77.3167 31.2487 77.4872 31.0715 77.5168 30.8294C77.5464 30.5874 77.439 30.3726 77.2686 30.3522C77.0981 30.3317 76.9351 30.509 76.9018 30.751Z" fill="#263238"/>
<path d="M79.8732 31.1192C79.8399 31.3612 79.951 31.576 80.1215 31.5964C80.2919 31.6169 80.4623 31.4396 80.4919 31.1976C80.5216 30.9556 80.4178 30.7408 80.2474 30.7204C80.077 30.6999 79.9103 30.8772 79.8732 31.1192Z" fill="#263238"/>
<path d="M80.1621 30.7244L80.8216 30.6357C80.8216 30.6357 80.4363 31.0482 80.1621 30.7244Z" fill="#263238"/>
<path d="M78.706 31.3857C78.8604 31.9662 79.0997 32.5246 79.4174 33.0458C79.2708 33.1175 79.109 33.1589 78.9433 33.1672C78.7776 33.1754 78.6119 33.1503 78.4578 33.0936L78.706 31.3857Z" fill="#ED893E"/>
<path d="M76.9166 33.8161C76.3955 33.6599 75.9584 33.3272 75.694 32.8855C75.6873 32.8714 75.6867 32.8555 75.6922 32.841C75.6977 32.8265 75.7089 32.8144 75.7236 32.8071C75.7393 32.8 75.7575 32.7988 75.7741 32.8039C75.7908 32.809 75.8046 32.82 75.8125 32.8344C75.9771 33.0999 76.2075 33.326 76.485 33.4943C76.7625 33.6625 77.0792 33.7681 77.4094 33.8025C77.4261 33.8025 77.4421 33.8086 77.4539 33.8194C77.4657 33.8303 77.4723 33.8451 77.4723 33.8604C77.4723 33.8758 77.4657 33.8905 77.4539 33.9014C77.4421 33.9123 77.4261 33.9184 77.4094 33.9184C77.2415 33.9013 77.0762 33.867 76.9166 33.8161Z" fill="#263238"/>
<path d="M75.5494 29.3508C75.5279 29.3426 75.5088 29.3298 75.4938 29.3133C75.4816 29.3025 75.4719 29.2895 75.4653 29.2752C75.4586 29.2608 75.4552 29.2454 75.4552 29.2298C75.4552 29.2142 75.4586 29.1988 75.4653 29.1844C75.4719 29.1701 75.4816 29.1571 75.4938 29.1463C75.6754 28.9969 75.8936 28.8903 76.1298 28.8357C76.366 28.7811 76.6131 28.78 76.8498 28.8327C76.866 28.8369 76.8811 28.8442 76.8942 28.8539C76.9073 28.8637 76.9182 28.8757 76.9261 28.8894C76.9341 28.9031 76.9389 28.918 76.9405 28.9335C76.942 28.9489 76.9402 28.9645 76.9351 28.9792C76.9256 29.0094 76.9035 29.035 76.8737 29.0503C76.8439 29.0656 76.8087 29.0695 76.7757 29.0611C76.5808 29.0212 76.3784 29.0245 76.1852 29.0707C75.9919 29.1169 75.8134 29.2047 75.6643 29.3269C75.6481 29.3383 75.6295 29.3463 75.6097 29.3505C75.5898 29.3546 75.5693 29.3547 75.5494 29.3508Z" fill="#263238"/>
<path d="M81.1217 30.0761C81.1023 30.0692 81.0847 30.0587 81.0698 30.0454C80.9399 29.9052 80.776 29.7951 80.5913 29.724C80.4065 29.6529 80.2062 29.6229 80.0065 29.6364C79.9896 29.6398 79.9721 29.6399 79.9551 29.6367C79.9382 29.6335 79.9222 29.627 79.9082 29.6176C79.8942 29.6083 79.8825 29.5963 79.8739 29.5825C79.8653 29.5687 79.86 29.5533 79.8583 29.5375C79.8529 29.5063 79.8612 29.4745 79.8814 29.4489C79.9015 29.4233 79.9318 29.4062 79.9657 29.4011C80.2076 29.3811 80.4511 29.4146 80.6761 29.4988C80.901 29.583 81.1008 29.7155 81.2588 29.8852C81.2767 29.9049 81.2873 29.9294 81.2889 29.9551C81.2906 29.9808 81.2831 30.0063 81.2677 30.0277C81.2523 30.0492 81.2297 30.0655 81.2034 30.0742C81.1771 30.083 81.1484 30.0836 81.1217 30.0761Z" fill="#263238"/>
<path d="M84.0523 55.7961C84.2922 55.1085 84.6769 54.4711 85.1845 53.9203C85.6921 53.3695 86.3126 52.916 87.0107 52.5859C87.7087 52.2557 88.4706 52.0553 89.2528 51.9961C90.0351 51.9368 90.8223 52.0199 91.5697 52.2406C92.317 52.4613 93.0098 52.8153 93.6084 53.2823C94.2071 53.7493 94.6999 54.3203 95.0587 54.9626C95.4175 55.6048 95.6354 56.3058 95.6997 57.0255C95.7641 57.7452 95.6738 58.4696 95.4339 59.1572L93.1294 65.7908L81.7478 62.4263L84.0523 55.7961Z" fill="#90CAF9"/>
<path opacity="0.3" d="M84.0523 55.7961C84.2922 55.1085 84.6769 54.4711 85.1845 53.9203C85.6921 53.3695 86.3126 52.916 87.0107 52.5859C87.7087 52.2557 88.4706 52.0553 89.2528 51.9961C90.0351 51.9368 90.8223 52.0199 91.5697 52.2406C92.317 52.4613 93.0098 52.8153 93.6084 53.2823C94.2071 53.7493 94.6999 54.3203 95.0587 54.9626C95.4175 55.6048 95.6354 56.3058 95.6997 57.0255C95.7641 57.7452 95.6738 58.4696 95.4339 59.1572L93.1294 65.7908L81.7478 62.4263L84.0523 55.7961Z" fill="black"/>
<path d="M72.8226 52.4761L70.7404 58.4416C70.7099 58.5273 70.6982 58.6177 70.7059 58.7076C70.7137 58.7975 70.7407 58.8851 70.7855 58.9653C70.8303 59.0455 70.892 59.1168 70.9669 59.1749C71.0418 59.2331 71.1286 59.2769 71.222 59.304L81.7441 62.4129L84.056 55.7929C84.5411 54.4056 85.605 53.2522 87.0139 52.5861C88.4227 51.9201 90.0614 51.7959 91.5697 52.2409L80.34 48.9207C78.8306 48.4767 77.1915 48.6017 75.7822 49.2682C74.3729 49.9348 73.3086 51.0884 72.8226 52.4761Z" fill="#90CAF9"/>
<path d="M78.469 56.9999L81.37 48.6925C81.3799 48.6627 81.3829 48.6312 81.3785 48.6003C81.3741 48.5694 81.3626 48.5397 81.3447 48.5132C81.3268 48.4867 81.3029 48.464 81.2747 48.4467C81.2464 48.4295 81.2145 48.4179 81.181 48.413L78.2171 48.0107L77.8466 49.0879L80.0066 49.7254L77.5613 56.7272L78.469 56.9999Z" fill="#263238"/>
<path d="M76.9277 56.5429C76.8607 56.7354 76.8572 56.9419 76.9177 57.1362C76.9782 57.3306 77.0999 57.504 77.2675 57.6347C77.4351 57.7655 77.641 57.8475 77.8592 57.8706C78.0775 57.8937 78.2983 57.8568 78.4938 57.7645C78.6892 57.6722 78.8506 57.5287 78.9574 57.3521C79.0643 57.1755 79.1118 56.9737 79.0941 56.7722C79.0764 56.5707 78.9942 56.3786 78.8578 56.2201C78.7215 56.0616 78.5372 55.9438 78.3281 55.8816C78.189 55.8402 78.0423 55.8245 77.8966 55.8354C77.7508 55.8462 77.6088 55.8834 77.4787 55.9449C77.3486 56.0063 77.233 56.0907 77.1384 56.1934C77.0439 56.296 76.9722 56.4148 76.9277 56.5429Z" fill="#263238"/>
<path d="M82.2925 63.4046L96.8901 67.7168C96.9431 67.7327 96.999 67.7388 97.0546 67.7347C97.1102 67.7306 97.1644 67.7164 97.214 67.6929C97.2636 67.6695 97.3076 67.6372 97.3436 67.598C97.3796 67.5588 97.4068 67.5135 97.4236 67.4645C97.4414 67.4158 97.4484 67.3642 97.4442 67.3129C97.44 67.2616 97.4246 67.2116 97.3991 67.1659C97.3735 67.1201 97.3383 67.0795 97.2954 67.0465C97.2525 67.0135 97.2029 66.9887 97.1494 66.9737L81.7442 62.4229C81.6755 62.6199 81.6946 62.8341 81.7974 63.0182C81.9003 63.2023 82.0783 63.3413 82.2925 63.4046Z" fill="#90CAF9"/>
<path opacity="0.2" d="M82.2925 63.4046L88.2575 65.167C88.3108 65.1829 88.367 65.189 88.4228 65.185C88.4787 65.1809 88.5331 65.1668 88.583 65.1434C88.6329 65.1199 88.6773 65.0877 88.7136 65.0484C88.7499 65.0092 88.7775 64.9638 88.7947 64.9147C88.8286 64.8162 88.8188 64.7093 88.7674 64.6174C88.7161 64.5254 88.6274 64.4559 88.5206 64.4238L81.7442 62.4229C81.6755 62.6199 81.6946 62.8341 81.7974 63.0182C81.9003 63.2023 82.0783 63.3413 82.2925 63.4046Z" fill="black"/>
<path d="M66.8762 44.3496L66.6724 44.5576L66.4427 44.7996C66.2871 44.9632 66.1315 45.1405 65.9833 45.3075C65.6795 45.6484 65.3905 46.0131 65.12 46.3813C64.0006 47.8392 63.1193 49.4402 62.5043 51.1332C62.3561 51.5559 62.219 51.9786 62.1116 52.4116C62.0745 52.5377 62.0708 52.5888 62.0523 52.6468C62.0495 52.6967 62.0495 52.7468 62.0523 52.7968C62.0464 52.85 62.0464 52.9037 62.0523 52.957C62.0523 53.0183 62.1783 53.1615 62.4821 53.2979C62.8473 53.449 63.2321 53.5567 63.6269 53.6183C64.5799 53.7577 65.5448 53.8159 66.5094 53.7921C67.5171 53.7921 68.5397 53.7103 69.5623 53.6115C70.5848 53.5126 71.6222 53.3899 72.6263 53.2501L73.0301 54.7262C70.9622 55.3454 68.8345 55.7803 66.6761 56.0249C65.5397 56.161 64.3907 56.1839 63.249 56.0931C62.5963 56.0368 61.9553 55.8968 61.3447 55.6772C60.9784 55.5421 60.6342 55.3608 60.3221 55.1386C59.9545 54.8734 59.6516 54.5401 59.4329 54.1603C59.0565 53.4478 58.9559 52.6384 59.1476 51.8661C59.2365 51.3446 59.3662 50.8435 59.5181 50.3185C59.8089 49.3108 60.1957 48.3287 60.6741 47.3835C61.1537 46.4362 61.7124 45.5244 62.345 44.6564C62.6636 44.2235 63.0045 43.8042 63.3602 43.3917C63.5417 43.1872 63.7307 42.9861 63.9159 42.785L64.216 42.4884C64.3235 42.3827 64.4087 42.2975 64.5569 42.168L66.8762 44.3496Z" fill="#FFB573"/>
<path d="M71.8185 53.5635L74.412 52.2988L74.5268 54.8623C74.5268 54.8623 72.6744 55.5679 71.6147 54.7907L71.8185 53.5635Z" fill="#FFB573"/>
<path d="M76.5498 52.1045L76.1608 54.4668L74.5306 54.8622L74.4158 52.2988L76.5498 52.1045Z" fill="#FFB573"/>
<path d="M65.3089 39.5429C63.675 39.8088 61.389 44.1176 61.389 44.1176L65.5053 47.5264C65.5053 47.5264 68.7767 44.2403 68.6026 42.2836C68.4544 40.6303 67.3874 39.202 65.3089 39.5429Z" fill="#90CAF9"/>
<path opacity="0.7" d="M65.3089 39.5429C63.675 39.8088 61.389 44.1176 61.389 44.1176L65.5053 47.5264C65.5053 47.5264 68.7767 44.2403 68.6026 42.2836C68.4544 40.6303 67.3874 39.202 65.3089 39.5429Z" fill="white"/>
<path d="M54.283 116.262C54.2399 116.267 54.1963 116.267 54.1533 116.262C53.7421 116.242 53.3049 115.662 53.0789 115.321C53.0719 115.312 53.0681 115.3 53.0681 115.289C53.0681 115.277 53.0719 115.266 53.0789 115.256C53.0856 115.246 53.0958 115.238 53.1079 115.234C53.1199 115.23 53.1331 115.229 53.1456 115.233C53.2789 115.256 54.4312 115.495 54.5757 115.853C54.5907 115.892 54.5945 115.934 54.5867 115.974C54.5789 116.015 54.5598 116.053 54.5312 116.085C54.4719 116.167 54.3847 116.23 54.283 116.262ZM53.2715 115.396C53.6013 115.863 53.9273 116.143 54.1607 116.156C54.2139 116.157 54.2664 116.146 54.3132 116.122C54.3599 116.099 54.3993 116.065 54.4275 116.023C54.4435 116.008 54.4544 115.99 54.459 115.969C54.4636 115.948 54.4617 115.927 54.4534 115.907C54.3645 115.689 53.6717 115.485 53.2715 115.396Z" fill="#90CAF9"/>
<path d="M54.1643 115.322C53.8227 115.408 53.4642 115.422 53.1158 115.363C53.1049 115.359 53.0951 115.354 53.0873 115.346C53.0795 115.338 53.074 115.329 53.0714 115.318C53.0662 115.309 53.0635 115.299 53.0635 115.289C53.0635 115.279 53.0662 115.269 53.0714 115.26C53.101 115.236 53.7753 114.63 54.2459 114.66C54.304 114.661 54.3611 114.674 54.4126 114.699C54.4641 114.724 54.5085 114.76 54.5423 114.803C54.5827 114.843 54.6076 114.894 54.613 114.949C54.6183 115.003 54.6039 115.058 54.5719 115.103C54.4655 115.215 54.3224 115.292 54.1643 115.322ZM53.2714 115.267C53.6419 115.315 54.3348 115.23 54.4793 115.035C54.5015 115.005 54.52 114.957 54.4533 114.878C54.4309 114.849 54.4011 114.824 54.3663 114.807C54.3315 114.79 54.2928 114.78 54.2533 114.78C53.9309 114.759 53.4641 115.107 53.2714 115.267Z" fill="#90CAF9"/>
<path d="M71.0109 120.466C70.6527 120.458 70.2963 120.416 69.9476 120.34C69.9354 120.336 69.9248 120.328 69.9174 120.319C69.9099 120.309 69.9059 120.297 69.9059 120.285C69.9059 120.273 69.9099 120.262 69.9174 120.252C69.9248 120.242 69.9354 120.235 69.9476 120.231C70.1069 120.159 71.5259 119.549 71.8816 119.781C71.9136 119.801 71.9392 119.829 71.9555 119.861C71.9718 119.893 71.9783 119.929 71.9742 119.965C71.9725 120.031 71.9542 120.097 71.9208 120.156C71.8875 120.215 71.8398 120.266 71.7815 120.306C71.5491 120.432 71.2797 120.488 71.0109 120.466ZM70.1699 120.261C70.5885 120.333 71.3666 120.428 71.6889 120.207C71.7302 120.177 71.7641 120.139 71.7884 120.096C71.8127 120.053 71.8268 120.006 71.8297 119.958C71.8329 119.943 71.8311 119.928 71.8245 119.913C71.8179 119.899 71.8068 119.888 71.7927 119.88C71.5926 119.754 70.7553 120.023 70.1588 120.261H70.1699Z" fill="#90CAF9"/>
<path d="M69.9587 120.333C69.9454 120.336 69.9313 120.336 69.918 120.333C69.909 120.325 69.9023 120.315 69.8985 120.305C69.8946 120.294 69.8936 120.282 69.8958 120.271C69.8958 120.217 70.2329 118.932 71.0072 119.014C71.1999 119.037 71.2518 119.123 71.2629 119.194C71.311 119.535 70.4182 120.179 69.9921 120.343L69.9587 120.333ZM70.9294 119.116C70.4404 119.116 70.1551 119.866 70.0588 120.166C70.5219 119.941 71.1703 119.406 71.1295 119.198C71.1295 119.181 71.1295 119.133 70.985 119.119L70.9294 119.116Z" fill="#90CAF9"/>
<path d="M77.1982 30.3562L77.854 30.2676C77.854 30.2676 77.465 30.6801 77.1982 30.3562Z" fill="#263238"/>
<path d="M99.9949 58.8749L85.6492 61.602C85.4039 61.6444 85.1503 61.5968 84.9426 61.4694C84.7349 61.342 84.5896 61.1449 84.5378 60.9202L83.8672 58.0568L83.6263 57L84.0487 55.7933C84.1075 55.6201 84.178 55.4504 84.2599 55.2854C84.2691 55.2592 84.2816 55.234 84.2969 55.2104C84.5336 54.7138 84.8523 54.2538 85.2417 53.8468L85.9827 53.7037L98.2832 51.355C98.5285 51.3126 98.7821 51.3602 98.9898 51.4876C99.1975 51.615 99.3428 51.8121 99.3947 52.0367L100.703 57.8318C100.756 58.0562 100.712 58.2911 100.58 58.486C100.447 58.681 100.238 58.8205 99.9949 58.8749Z" fill="#90CAF9"/>
<path opacity="0.3" d="M99.2835 51.7295L92.3626 58.2063L90.8806 57.654L85.1157 55.503L84.3043 55.1997C84.541 54.7031 84.8597 54.2431 85.2491 53.8361L85.9901 53.6929L98.2906 51.3443C98.479 51.3096 98.6743 51.3278 98.8513 51.3965C99.0284 51.4652 99.1789 51.5812 99.2835 51.7295Z" fill="black"/>
<path d="M99.2835 51.729L90.8807 57.6638L90.3324 58.0524L85.0528 55.6423L84.2673 55.3015C84.2766 55.2753 84.289 55.2501 84.3044 55.2265C84.541 54.7299 84.8597 54.2699 85.2491 53.8629L85.9901 53.7198L98.2906 51.3711C98.476 51.3337 98.6694 51.3477 98.8461 51.4114C99.0228 51.4751 99.1751 51.5857 99.2835 51.729Z" fill="#90CAF9"/>
<path opacity="0.2" d="M99.2835 51.729L90.8807 57.6638L90.3324 58.0524L85.0528 55.6423L84.2673 55.3015C84.2766 55.2753 84.289 55.2501 84.3044 55.2265C84.541 54.7299 84.8597 54.2699 85.2491 53.8629L85.9901 53.7198L98.2906 51.3711C98.476 51.3337 98.6694 51.3477 98.8461 51.4114C99.0228 51.4751 99.1751 51.5857 99.2835 51.729Z" fill="white"/>
<path d="M117.508 70.8288L113.136 75.1649C112.964 75.3339 112.726 75.4334 112.474 75.4417C112.222 75.45 111.977 75.3665 111.792 75.2092L101.069 66.0224C100.885 65.8641 100.776 65.6448 100.767 65.4128C100.758 65.1808 100.849 64.955 101.021 64.785L105.408 60.4489C105.493 60.3639 105.595 60.2953 105.709 60.247C105.823 60.1987 105.947 60.1717 106.072 60.1675C106.198 60.1634 106.323 60.1823 106.44 60.2229C106.558 60.2636 106.665 60.3254 106.756 60.4046L117.475 69.5914C117.614 69.7103 117.711 69.8647 117.754 70.0348C117.797 70.2049 117.784 70.3828 117.716 70.5459C117.669 70.6528 117.599 70.7493 117.508 70.8288Z" fill="#90CAF9"/>
<path opacity="0.3" d="M117.701 70.5629L107.949 69.1005L105.686 60.2375C105.858 60.1643 106.051 60.1398 106.239 60.1671C106.427 60.1944 106.602 60.2723 106.742 60.3909L117.46 69.5778C117.606 69.699 117.707 69.8588 117.75 70.0352C117.793 70.2116 117.776 70.3959 117.701 70.5629Z" fill="black"/>
<path d="M117.701 70.5635L108.205 67.9591L105.686 60.2688C105.858 60.1956 106.051 60.171 106.239 60.1983C106.427 60.2256 106.602 60.3035 106.742 60.4222L117.46 69.609C117.599 69.7279 117.696 69.8823 117.739 70.0524C117.782 70.2225 117.769 70.4004 117.701 70.5635Z" fill="#90CAF9"/>
<path opacity="0.2" d="M117.701 70.5635L108.205 67.9591L105.686 60.2688C105.858 60.1956 106.051 60.171 106.239 60.1983C106.427 60.2256 106.602 60.3035 106.742 60.4222L117.46 69.609C117.599 69.7279 117.696 69.8823 117.739 70.0524C117.782 70.2225 117.769 70.4004 117.701 70.5635Z" fill="white"/>
<path d="M121.321 77.971L126.137 83.1456C126.229 83.2446 126.298 83.3598 126.34 83.4842C126.382 83.6086 126.396 83.7396 126.381 83.8692C126.366 83.9987 126.323 84.1241 126.253 84.2376C126.184 84.3512 126.09 84.4506 125.978 84.5296L115.515 92.0291C115.339 92.1265 115.13 92.1602 114.929 92.1236C114.727 92.0871 114.548 91.9829 114.426 91.8314L110.658 87.8771C110.587 87.8011 110.528 87.7161 110.484 87.6248C110.414 87.4994 110.384 87.3581 110.4 87.2179C110.415 87.0776 110.473 86.9443 110.569 86.834L119.831 77.9335C119.976 77.7894 120.167 77.6918 120.376 77.655C120.586 77.6182 120.802 77.6441 120.995 77.729C121.119 77.7899 121.23 77.872 121.321 77.971Z" fill="#90CAF9"/>
<path opacity="0.3" d="M120.994 77.7391L118.694 87.1544L110.498 87.635C110.428 87.5096 110.399 87.3683 110.414 87.228C110.429 87.0878 110.488 86.9545 110.584 86.8442L119.846 77.9436C119.989 77.8025 120.178 77.7068 120.384 77.67C120.59 77.6333 120.804 77.6575 120.994 77.7391Z" fill="black"/>
<path d="M120.995 77.7394L117.138 87.7307L110.491 87.6353C110.421 87.5099 110.392 87.3686 110.407 87.2283C110.422 87.088 110.481 86.9548 110.576 86.8444L119.839 77.9439C119.983 77.8013 120.172 77.7046 120.38 77.6679C120.588 77.6311 120.803 77.6561 120.995 77.7394Z" fill="#90CAF9"/>
<path opacity="0.2" d="M120.995 77.7394L117.138 87.7307L110.491 87.6353C110.421 87.5099 110.392 87.3686 110.407 87.2283C110.422 87.088 110.481 86.9548 110.576 86.8444L119.839 77.9439C119.983 77.8013 120.172 77.7046 120.38 77.6679C120.588 77.6311 120.803 77.6561 120.995 77.7394Z" fill="white"/>
</svg>
