<svg width="108" height="176" viewBox="0 0 108 176" fill="none" xmlns="http://www.w3.org/2000/svg">
<path d="M20.593 125.315C20.593 125.315 13.3555 107.819 29.0744 96.6401C44.7934 85.4607 83.905 81.8581 83.905 81.8581C83.905 81.8581 38.4929 103.506 28.719 126.947C27.3249 127.245 25.8847 127.253 24.4871 126.973C23.0895 126.692 21.7642 126.128 20.593 125.315Z" fill="#27AAE1"/>
<path d="M98.283 0C98.283 0 91.7078 17.3991 43.5978 35.1859C-4.5122 52.9727 0.948242 95.5577 0.948242 95.5577C0.948242 95.5577 4.95472 120.727 22.0792 125.913C22.0792 125.913 6.78025 99.2572 57.4428 81.4704C57.4428 81.4704 132.548 54.8144 98.283 0Z" fill="url(#paint0_linear_2120_26378)"/>
<path d="M83.6951 81.7773C83.6951 81.7773 20.3831 107.545 22.5963 150.598C22.5963 150.598 21.8532 164.589 38.7515 175.994C38.7515 175.994 45.7467 144.346 89.1879 117.48C108.348 103.861 83.6951 81.7773 83.6951 81.7773Z" fill="url(#paint1_linear_2120_26378)"/>
<defs>
<linearGradient id="paint0_linear_2120_26378" x1="0.75438" y1="62.9566" x2="107.233" y2="62.9566" gradientUnits="userSpaceOnUse">
<stop stop-color="#27AAE1"/>
<stop offset="1" stop-color="#2B3990"/>
</linearGradient>
<linearGradient id="paint1_linear_2120_26378" x1="22.5317" y1="128.886" x2="96.49" y2="128.886" gradientUnits="userSpaceOnUse">
<stop stop-color="#2B3990"/>
<stop offset="0.13" stop-color="#284196"/>
<stop offset="0.33" stop-color="#2056A8"/>
<stop offset="0.58" stop-color="#147AC4"/>
<stop offset="0.84" stop-color="#03A7E9"/>
</linearGradient>
</defs>
</svg>
