<svg width="24" height="25" viewBox="0 0 24 25" fill="none" xmlns="http://www.w3.org/2000/svg">
<mask id="mask0_3212_3410" style="mask-type:alpha" maskUnits="userSpaceOnUse" x="0" y="0" width="24" height="25">
<rect y="0.702148" width="24" height="24" fill="#D9D9D9"/>
</mask>
<g mask="url(#mask0_3212_3410)">
<path d="M9.8 16.9771C9.6 16.7771 9.50417 16.5355 9.5125 16.2521C9.52083 15.9688 9.625 15.7271 9.825 15.5271L11.65 13.7021H4C3.71667 13.7021 3.47917 13.6063 3.2875 13.4146C3.09583 13.223 3 12.9855 3 12.7021C3 12.4188 3.09583 12.1813 3.2875 11.9896C3.47917 11.798 3.71667 11.7021 4 11.7021H11.65L9.8 9.85215C9.6 9.65215 9.5 9.41465 9.5 9.13965C9.5 8.86465 9.6 8.62715 9.8 8.42715C10 8.22715 10.2375 8.12715 10.5125 8.12715C10.7875 8.12715 11.025 8.22715 11.225 8.42715L14.8 12.0021C14.9 12.1021 14.9708 12.2105 15.0125 12.3271C15.0542 12.4438 15.075 12.5688 15.075 12.7021C15.075 12.8355 15.0542 12.9605 15.0125 13.0771C14.9708 13.1938 14.9 13.3021 14.8 13.4021L11.2 17.0021C11.0167 17.1855 10.7875 17.2771 10.5125 17.2771C10.2375 17.2771 10 17.1771 9.8 16.9771ZM5 21.7021C4.45 21.7021 3.97917 21.5063 3.5875 21.1146C3.19583 20.723 3 20.2521 3 19.7021V16.7021C3 16.4188 3.09583 16.1813 3.2875 15.9896C3.47917 15.798 3.71667 15.7021 4 15.7021C4.28333 15.7021 4.52083 15.798 4.7125 15.9896C4.90417 16.1813 5 16.4188 5 16.7021V19.7021H19V5.70215H5V8.70215C5 8.98548 4.90417 9.22298 4.7125 9.41465C4.52083 9.60632 4.28333 9.70215 4 9.70215C3.71667 9.70215 3.47917 9.60632 3.2875 9.41465C3.09583 9.22298 3 8.98548 3 8.70215V5.70215C3 5.15215 3.19583 4.68132 3.5875 4.28965C3.97917 3.89798 4.45 3.70215 5 3.70215H19C19.55 3.70215 20.0208 3.89798 20.4125 4.28965C20.8042 4.68132 21 5.15215 21 5.70215V19.7021C21 20.2521 20.8042 20.723 20.4125 21.1146C20.0208 21.5063 19.55 21.7021 19 21.7021H5Z" fill="#D13217"/>
</g>
</svg>
