<svg width="24" height="25" viewBox="0 0 24 25" fill="none" xmlns="http://www.w3.org/2000/svg">
<mask id="mask0_3212_1463" style="mask-type:alpha" maskUnits="userSpaceOnUse" x="0" y="0" width="24" height="25">
<rect y="0.702393" width="24" height="24" fill="#D9D9D9"/>
</mask>
<g mask="url(#mask0_3212_1463)">
<path d="M2 18.7024V10.7024C2 10.1524 2.19583 9.68156 2.5875 9.28989C2.97917 8.89823 3.45 8.70239 4 8.70239H7V6.70239C7 6.15239 7.19583 5.68156 7.5875 5.28989C7.97917 4.89823 8.45 4.70239 9 4.70239H15C15.55 4.70239 16.0208 4.89823 16.4125 5.28989C16.8042 5.68156 17 6.15239 17 6.70239V8.70239H20C20.55 8.70239 21.0208 8.89823 21.4125 9.28989C21.8042 9.68156 22 10.1524 22 10.7024V18.7024C22 19.2524 21.8042 19.7232 21.4125 20.1149C21.0208 20.5066 20.55 20.7024 20 20.7024H4C3.45 20.7024 2.97917 20.5066 2.5875 20.1149C2.19583 19.7232 2 19.2524 2 18.7024ZM4 18.7024H20V15.7024H18C18 15.9857 17.9042 16.2232 17.7125 16.4149C17.5208 16.6066 17.2833 16.7024 17 16.7024C16.7167 16.7024 16.4792 16.6066 16.2875 16.4149C16.0958 16.2232 16 15.9857 16 15.7024H8C8 15.9857 7.90417 16.2232 7.7125 16.4149C7.52083 16.6066 7.28333 16.7024 7 16.7024C6.71667 16.7024 6.47917 16.6066 6.2875 16.4149C6.09583 16.2232 6 15.9857 6 15.7024H4V18.7024ZM4 10.7024V13.7024H6C6 13.4191 6.09583 13.1816 6.2875 12.9899C6.47917 12.7982 6.71667 12.7024 7 12.7024C7.28333 12.7024 7.52083 12.7982 7.7125 12.9899C7.90417 13.1816 8 13.4191 8 13.7024H16C16 13.4191 16.0958 13.1816 16.2875 12.9899C16.4792 12.7982 16.7167 12.7024 17 12.7024C17.2833 12.7024 17.5208 12.7982 17.7125 12.9899C17.9042 13.1816 18 13.4191 18 13.7024H20V10.7024H4ZM9 8.70239H15V6.70239H9V8.70239Z" fill="#111111"/>
</g>
</svg>
