<svg width="24" height="24" viewBox="0 0 24 24" fill="none" xmlns="http://www.w3.org/2000/svg">
<mask id="mask0_2812_32073" style="mask-type:alpha" maskUnits="userSpaceOnUse" x="0" y="0" width="24" height="24">
<rect width="24" height="24" fill="#D9D9D9"/>
</mask>
<g mask="url(#mask0_2812_32073)">
<path d="M12 20.725C11.8333 20.725 11.6708 20.7042 11.5125 20.6625C11.3541 20.6209 11.2 20.5584 11.05 20.475L6.04995 17.775C5.71662 17.5917 5.45828 17.3459 5.27495 17.0375C5.09162 16.7292 4.99995 16.3834 4.99995 16V11.2L2.59995 9.87502C2.41662 9.77502 2.28328 9.65002 2.19995 9.50002C2.11662 9.35002 2.07495 9.18336 2.07495 9.00002C2.07495 8.81669 2.11662 8.65002 2.19995 8.50002C2.28328 8.35002 2.41662 8.22502 2.59995 8.12502L11.05 3.52502C11.2 3.44169 11.3541 3.37919 11.5125 3.33752C11.6708 3.29586 11.8333 3.27502 12 3.27502C12.1666 3.27502 12.3291 3.29586 12.4875 3.33752C12.6458 3.37919 12.8 3.44169 12.95 3.52502L22.475 8.72502C22.6416 8.80836 22.7708 8.92919 22.8625 9.08752C22.9541 9.24586 23 9.41669 23 9.60002V16C23 16.2834 22.9041 16.5209 22.7125 16.7125C22.5208 16.9042 22.2833 17 22 17C21.7166 17 21.4791 16.9042 21.2875 16.7125C21.0958 16.5209 21 16.2834 21 16V10.1L19 11.2V16C19 16.3834 18.9083 16.7292 18.725 17.0375C18.5416 17.3459 18.2833 17.5917 17.95 17.775L12.95 20.475C12.8 20.5584 12.6458 20.6209 12.4875 20.6625C12.3291 20.7042 12.1666 20.725 12 20.725ZM12 12.7L18.85 9.00002L12 5.30002L5.14995 9.00002L12 12.7ZM12 18.725L17 16.025V12.25L12.975 14.475C12.825 14.5584 12.6666 14.6209 12.5 14.6625C12.3333 14.7042 12.1666 14.725 12 14.725C11.8333 14.725 11.6666 14.7042 11.5 14.6625C11.3333 14.6209 11.175 14.5584 11.025 14.475L6.99995 12.25V16.025L12 18.725Z" fill="#2B3990"/>
</g>
</svg>
