<svg width="24" height="25" viewBox="0 0 24 25" fill="none" xmlns="http://www.w3.org/2000/svg">
<mask id="mask0_3212_1458" style="mask-type:alpha" maskUnits="userSpaceOnUse" x="0" y="0" width="24" height="25">
<rect y="0.702393" width="24" height="24" fill="#D9D9D9"/>
</mask>
<g mask="url(#mask0_3212_1458)">
<path d="M3 21.7024C2.71667 21.7024 2.47917 21.6066 2.2875 21.4149C2.09583 21.2232 2 20.9857 2 20.7024C2 20.4191 2.09583 20.1816 2.2875 19.9899C2.47917 19.7982 2.71667 19.7024 3 19.7024H21C21.2833 19.7024 21.5208 19.7982 21.7125 19.9899C21.9042 20.1816 22 20.4191 22 20.7024C22 20.9857 21.9042 21.2232 21.7125 21.4149C21.5208 21.6066 21.2833 21.7024 21 21.7024H3ZM4.5 18.7024C4.08333 18.7024 3.72917 18.5566 3.4375 18.2649C3.14583 17.9732 3 17.6191 3 17.2024V13.2024C3 12.7857 3.14583 12.4316 3.4375 12.1399C3.72917 11.8482 4.08333 11.7024 4.5 11.7024C4.91667 11.7024 5.27083 11.8482 5.5625 12.1399C5.85417 12.4316 6 12.7857 6 13.2024V17.2024C6 17.6191 5.85417 17.9732 5.5625 18.2649C5.27083 18.5566 4.91667 18.7024 4.5 18.7024ZM9.5 18.7024C9.08333 18.7024 8.72917 18.5566 8.4375 18.2649C8.14583 17.9732 8 17.6191 8 17.2024V8.20239C8 7.78573 8.14583 7.43156 8.4375 7.13989C8.72917 6.84823 9.08333 6.70239 9.5 6.70239C9.91667 6.70239 10.2708 6.84823 10.5625 7.13989C10.8542 7.43156 11 7.78573 11 8.20239V17.2024C11 17.6191 10.8542 17.9732 10.5625 18.2649C10.2708 18.5566 9.91667 18.7024 9.5 18.7024ZM14.5 18.7024C14.0833 18.7024 13.7292 18.5566 13.4375 18.2649C13.1458 17.9732 13 17.6191 13 17.2024V11.2024C13 10.7857 13.1458 10.4316 13.4375 10.1399C13.7292 9.84823 14.0833 9.70239 14.5 9.70239C14.9167 9.70239 15.2708 9.84823 15.5625 10.1399C15.8542 10.4316 16 10.7857 16 11.2024V17.2024C16 17.6191 15.8542 17.9732 15.5625 18.2649C15.2708 18.5566 14.9167 18.7024 14.5 18.7024ZM19.5 18.7024C19.0833 18.7024 18.7292 18.5566 18.4375 18.2649C18.1458 17.9732 18 17.6191 18 17.2024V5.20239C18 4.78573 18.1458 4.43156 18.4375 4.13989C18.7292 3.84823 19.0833 3.70239 19.5 3.70239C19.9167 3.70239 20.2708 3.84823 20.5625 4.13989C20.8542 4.43156 21 4.78573 21 5.20239V17.2024C21 17.6191 20.8542 17.9732 20.5625 18.2649C20.2708 18.5566 19.9167 18.7024 19.5 18.7024Z" fill="#111111"/>
</g>
</svg>
