<svg width="24" height="25" viewBox="0 0 24 25" fill="none" xmlns="http://www.w3.org/2000/svg">
<mask id="mask0_3212_1468" style="mask-type:alpha" maskUnits="userSpaceOnUse" x="0" y="0" width="24" height="25">
<rect y="0.702393" width="24" height="24" fill="#D9D9D9"/>
</mask>
<g mask="url(#mask0_3212_1468)">
<path d="M2 20.7024C1.71667 20.7024 1.47917 20.6066 1.2875 20.4149C1.09583 20.2232 1 19.9857 1 19.7024V17.9024C1 17.3357 1.14583 16.8149 1.4375 16.3399C1.72917 15.8649 2.11667 15.5024 2.6 15.2524C3.63333 14.7357 4.68333 14.3482 5.75 14.0899C6.81667 13.8316 7.9 13.7024 9 13.7024C10.1 13.7024 11.1833 13.8316 12.25 14.0899C13.3167 14.3482 14.3667 14.7357 15.4 15.2524C15.8833 15.5024 16.2708 15.8649 16.5625 16.3399C16.8542 16.8149 17 17.3357 17 17.9024V19.7024C17 19.9857 16.9042 20.2232 16.7125 20.4149C16.5208 20.6066 16.2833 20.7024 16 20.7024H2ZM18.525 20.7024C18.675 20.5857 18.7917 20.4399 18.875 20.2649C18.9583 20.0899 19 19.8941 19 19.6774V17.7024C19 16.9691 18.7958 16.2649 18.3875 15.5899C17.9792 14.9149 17.4 14.3357 16.65 13.8524C17.5 13.9524 18.3 14.1232 19.05 14.3649C19.8 14.6066 20.5 14.9024 21.15 15.2524C21.75 15.5857 22.2083 15.9566 22.525 16.3649C22.8417 16.7732 23 17.2191 23 17.7024V19.7024C23 19.9857 22.9042 20.2232 22.7125 20.4149C22.5208 20.6066 22.2833 20.7024 22 20.7024H18.525ZM9 12.7024C7.9 12.7024 6.95833 12.3107 6.175 11.5274C5.39167 10.7441 5 9.80239 5 8.70239C5 7.60239 5.39167 6.66073 6.175 5.87739C6.95833 5.09406 7.9 4.70239 9 4.70239C10.1 4.70239 11.0417 5.09406 11.825 5.87739C12.6083 6.66073 13 7.60239 13 8.70239C13 9.80239 12.6083 10.7441 11.825 11.5274C11.0417 12.3107 10.1 12.7024 9 12.7024ZM19 8.70239C19 9.80239 18.6083 10.7441 17.825 11.5274C17.0417 12.3107 16.1 12.7024 15 12.7024C14.8167 12.7024 14.5833 12.6816 14.3 12.6399C14.0167 12.5982 13.7833 12.5524 13.6 12.5024C14.05 11.9691 14.3958 11.3774 14.6375 10.7274C14.8792 10.0774 15 9.40239 15 8.70239C15 8.00239 14.8792 7.32739 14.6375 6.67739C14.3958 6.02739 14.05 5.43573 13.6 4.90239C13.8333 4.81906 14.0667 4.76489 14.3 4.73989C14.5333 4.71489 14.7667 4.70239 15 4.70239C16.1 4.70239 17.0417 5.09406 17.825 5.87739C18.6083 6.66073 19 7.60239 19 8.70239ZM3 18.7024H15V17.9024C15 17.7191 14.9542 17.5524 14.8625 17.4024C14.7708 17.2524 14.65 17.1357 14.5 17.0524C13.6 16.6024 12.6917 16.2649 11.775 16.0399C10.8583 15.8149 9.93333 15.7024 9 15.7024C8.06667 15.7024 7.14167 15.8149 6.225 16.0399C5.30833 16.2649 4.4 16.6024 3.5 17.0524C3.35 17.1357 3.22917 17.2524 3.1375 17.4024C3.04583 17.5524 3 17.7191 3 17.9024V18.7024ZM9 10.7024C9.55 10.7024 10.0208 10.5066 10.4125 10.1149C10.8042 9.72323 11 9.25239 11 8.70239C11 8.15239 10.8042 7.68156 10.4125 7.28989C10.0208 6.89823 9.55 6.70239 9 6.70239C8.45 6.70239 7.97917 6.89823 7.5875 7.28989C7.19583 7.68156 7 8.15239 7 8.70239C7 9.25239 7.19583 9.72323 7.5875 10.1149C7.97917 10.5066 8.45 10.7024 9 10.7024Z" fill="#111111"/>
</g>
</svg>
