<svg width="24" height="24" viewBox="0 0 24 24" fill="none" xmlns="http://www.w3.org/2000/svg">
<mask id="mask0_2812_32068" style="mask-type:alpha" maskUnits="userSpaceOnUse" x="0" y="0" width="24" height="24">
<rect width="24" height="24" fill="#D9D9D9"/>
</mask>
<g mask="url(#mask0_2812_32068)">
<path d="M12 22C9.88333 22 8.02083 21.2625 6.4125 19.7875C4.80417 18.3125 4 16.3167 4 13.8C4 12.2167 4.6 10.5 5.8 8.65C7 6.8 8.81667 4.8 11.25 2.65C11.35 2.56667 11.4667 2.5 11.6 2.45C11.7333 2.4 11.8667 2.375 12 2.375C12.1333 2.375 12.2667 2.4 12.4 2.45C12.5333 2.5 12.65 2.56667 12.75 2.65C15.1833 4.8 17 6.8 18.2 8.65C19.4 10.5 20 12.2167 20 13.8C20 16.3167 19.1958 18.3125 17.5875 19.7875C15.9792 21.2625 14.1167 22 12 22ZM12 20C13.6833 20 15.1042 19.425 16.2625 18.275C17.4208 17.125 18 15.6333 18 13.8C18 12.6167 17.5083 11.2625 16.525 9.7375C15.5417 8.2125 14.0333 6.51667 12 4.65C9.96667 6.51667 8.45833 8.2125 7.475 9.7375C6.49167 11.2625 6 12.6167 6 13.8C6 15.6333 6.57917 17.125 7.7375 18.275C8.89583 19.425 10.3167 20 12 20ZM12.275 19C12.475 18.9833 12.6458 18.9042 12.7875 18.7625C12.9292 18.6208 13 18.45 13 18.25C13 18.0167 12.925 17.8292 12.775 17.6875C12.625 17.5458 12.4333 17.4833 12.2 17.5C11.5167 17.55 10.7917 17.3625 10.025 16.9375C9.25833 16.5125 8.775 15.7417 8.575 14.625C8.54167 14.4417 8.45417 14.2917 8.3125 14.175C8.17083 14.0583 8.00833 14 7.825 14C7.59167 14 7.4 14.0875 7.25 14.2625C7.1 14.4375 7.05 14.6417 7.1 14.875C7.38333 16.3917 8.05 17.475 9.1 18.125C10.15 18.775 11.2083 19.0667 12.275 19Z" fill="#2B3990"/>
</g>
</svg>
