<svg width="24" height="24" viewBox="0 0 24 24" fill="none" xmlns="http://www.w3.org/2000/svg">
<mask id="mask0_2812_32058" style="mask-type:alpha" maskUnits="userSpaceOnUse" x="0" y="0" width="24" height="24">
<rect width="24" height="24" fill="#D9D9D9"/>
</mask>
<g mask="url(#mask0_2812_32058)">
<path d="M5.3 14.275C5 13.975 4.85833 13.6167 4.875 13.2C4.89167 12.7833 5.05833 12.4583 5.375 12.225C6.29167 11.525 7.3125 10.9792 8.4375 10.5875C9.5625 10.1958 10.75 10 12 10C13.2667 10 14.4625 10.2 15.5875 10.6C16.7125 11 17.7333 11.5583 18.65 12.275C18.9667 12.5083 19.1292 12.8292 19.1375 13.2375C19.1458 13.6458 19 14 18.7 14.3C18.4167 14.5833 18.0708 14.7292 17.6625 14.7375C17.2542 14.7458 16.875 14.6333 16.525 14.4C15.875 13.95 15.1708 13.6042 14.4125 13.3625C13.6542 13.1208 12.85 13 12 13C11.15 13 10.3458 13.125 9.5875 13.375C8.82917 13.625 8.13333 13.9667 7.5 14.4C7.13333 14.65 6.74583 14.7625 6.3375 14.7375C5.92917 14.7125 5.58333 14.5583 5.3 14.275ZM1.05 10.05C0.766667 9.76667 0.625 9.42083 0.625 9.0125C0.625 8.60417 0.775 8.26667 1.075 8C2.55833 6.75 4.225 5.77083 6.075 5.0625C7.925 4.35417 9.9 4 12 4C14.1 4 16.075 4.35417 17.925 5.0625C19.775 5.77083 21.4417 6.75 22.925 8C23.225 8.26667 23.3792 8.6 23.3875 9C23.3958 9.4 23.25 9.75 22.95 10.05C22.6667 10.3333 22.3208 10.4833 21.9125 10.5C21.5042 10.5167 21.1333 10.3917 20.8 10.125C19.5833 9.14167 18.2292 8.375 16.7375 7.825C15.2458 7.275 13.6667 7 12 7C10.3333 7 8.75417 7.275 7.2625 7.825C5.77083 8.375 4.41667 9.14167 3.2 10.125C2.86667 10.3917 2.49583 10.5167 2.0875 10.5C1.67917 10.4833 1.33333 10.3333 1.05 10.05ZM12 20C11.4333 20 10.9583 19.8083 10.575 19.425C10.1917 19.0417 10 18.5667 10 18C10 17.4333 10.1917 16.9583 10.575 16.575C10.9583 16.1917 11.4333 16 12 16C12.5667 16 13.0417 16.1917 13.425 16.575C13.8083 16.9583 14 17.4333 14 18C14 18.5667 13.8083 19.0417 13.425 19.425C13.0417 19.8083 12.5667 20 12 20Z" fill="#2B3990"/>
</g>
</svg>
